<?xml version="1.0" encoding="UTF-8" ?>
<svg version="1.1" width="64" height="64" xmlns="http://www.w3.org/2000/svg" shape-rendering="crispEdges">
<rect x="30" y="6" width="2" height="2" fill="#000000" />
<rect x="32" y="6" width="2" height="2" fill="#000000" />
<rect x="28" y="8" width="2" height="2" fill="#000000" />
<rect x="30" y="8" width="2" height="2" fill="#000000" />
<rect x="32" y="8" width="2" height="2" fill="#000000" />
<rect x="34" y="8" width="2" height="2" fill="#000000" />
<rect x="26" y="10" width="2" height="2" fill="#000000" />
<rect x="28" y="10" width="2" height="2" fill="#000000" />
<rect x="30" y="10" width="2" height="2" fill="#5448BF" />
<rect x="32" y="10" width="2" height="2" fill="#5448BF" />
<rect x="34" y="10" width="2" height="2" fill="#000000" />
<rect x="36" y="10" width="2" height="2" fill="#000000" />
<rect x="24" y="12" width="2" height="2" fill="#000000" />
<rect x="26" y="12" width="2" height="2" fill="#000000" />
<rect x="28" y="12" width="2" height="2" fill="#4B40B2" />
<rect x="30" y="12" width="2" height="2" fill="#4B40B2" />
<rect x="32" y="12" width="2" height="2" fill="#4B40B2" />
<rect x="34" y="12" width="2" height="2" fill="#4B40B2" />
<rect x="36" y="12" width="2" height="2" fill="#000000" />
<rect x="38" y="12" width="2" height="2" fill="#000000" />
<rect x="24" y="14" width="2" height="2" fill="#000000" />
<rect x="26" y="14" width="2" height="2" fill="#4B40B2" />
<rect x="28" y="14" width="2" height="2" fill="#3C3392" />
<rect x="30" y="14" width="2" height="2" fill="#000000" />
<rect x="32" y="14" width="2" height="2" fill="#000000" />
<rect x="34" y="14" width="2" height="2" fill="#3C3392" />
<rect x="36" y="14" width="2" height="2" fill="#4B40B2" />
<rect x="38" y="14" width="2" height="2" fill="#000000" />
<rect x="22" y="16" width="2" height="2" fill="#000000" />
<rect x="24" y="16" width="2" height="2" fill="#000000" />
<rect x="26" y="16" width="2" height="2" fill="#3C3392" />
<rect x="28" y="16" width="2" height="2" fill="#000000" />
<rect x="30" y="16" width="2" height="2" fill="#4334DF" />
<rect x="32" y="16" width="2" height="2" fill="#4334DF" />
<rect x="34" y="16" width="2" height="2" fill="#000000" />
<rect x="36" y="16" width="2" height="2" fill="#3C3392" />
<rect x="38" y="16" width="2" height="2" fill="#000000" />
<rect x="40" y="16" width="2" height="2" fill="#000000" />
<rect x="22" y="18" width="2" height="2" fill="#000000" />
<rect x="24" y="18" width="2" height="2" fill="#000000" />
<rect x="26" y="18" width="2" height="2" fill="#3C3392" />
<rect x="28" y="18" width="2" height="2" fill="#000000" />
<rect x="30" y="18" width="2" height="2" fill="#4334DF" />
<rect x="32" y="18" width="2" height="2" fill="#4334DF" />
<rect x="34" y="18" width="2" height="2" fill="#000000" />
<rect x="36" y="18" width="2" height="2" fill="#3C3392" />
<rect x="38" y="18" width="2" height="2" fill="#000000" />
<rect x="40" y="18" width="2" height="2" fill="#000000" />
<rect x="20" y="20" width="2" height="2" fill="#000000" />
<rect x="22" y="20" width="2" height="2" fill="#746CBF" />
<rect x="24" y="20" width="2" height="2" fill="#000000" />
<rect x="26" y="20" width="2" height="2" fill="#000000" />
<rect x="28" y="20" width="2" height="2" fill="#000000" />
<rect x="30" y="20" width="2" height="2" fill="#4334DF" />
<rect x="32" y="20" width="2" height="2" fill="#4334DF" />
<rect x="34" y="20" width="2" height="2" fill="#000000" />
<rect x="36" y="20" width="2" height="2" fill="#000000" />
<rect x="38" y="20" width="2" height="2" fill="#000000" />
<rect x="40" y="20" width="2" height="2" fill="#746CBF" />
<rect x="42" y="20" width="2" height="2" fill="#000000" />
<rect x="20" y="22" width="2" height="2" fill="#000000" />
<rect x="22" y="22" width="2" height="2" fill="#6058A4" />
<rect x="24" y="22" width="2" height="2" fill="#000000" />
<rect x="26" y="22" width="2" height="2" fill="#000000" />
<rect x="28" y="22" width="2" height="2" fill="#000000" />
<rect x="30" y="22" width="2" height="2" fill="#000000" />
<rect x="32" y="22" width="2" height="2" fill="#000000" />
<rect x="34" y="22" width="2" height="2" fill="#000000" />
<rect x="36" y="22" width="2" height="2" fill="#000000" />
<rect x="38" y="22" width="2" height="2" fill="#000000" />
<rect x="40" y="22" width="2" height="2" fill="#6058A4" />
<rect x="42" y="22" width="2" height="2" fill="#000000" />
<rect x="20" y="24" width="2" height="2" fill="#000000" />
<rect x="22" y="24" width="2" height="2" fill="#6058A4" />
<rect x="24" y="24" width="2" height="2" fill="#000000" />
<rect x="26" y="24" width="2" height="2" fill="#393192" />
<rect x="28" y="24" width="2" height="2" fill="#000000" />
<rect x="30" y="24" width="2" height="2" fill="#000000" />
<rect x="32" y="24" width="2" height="2" fill="#000000" />
<rect x="34" y="24" width="2" height="2" fill="#000000" />
<rect x="36" y="24" width="2" height="2" fill="#393192" />
<rect x="38" y="24" width="2" height="2" fill="#000000" />
<rect x="40" y="24" width="2" height="2" fill="#6058A4" />
<rect x="42" y="24" width="2" height="2" fill="#000000" />
<rect x="20" y="26" width="2" height="2" fill="#000000" />
<rect x="22" y="26" width="2" height="2" fill="#554F89" />
<rect x="24" y="26" width="2" height="2" fill="#000000" />
<rect x="26" y="26" width="2" height="2" fill="#393192" />
<rect x="28" y="26" width="2" height="2" fill="#000000" />
<rect x="30" y="26" width="2" height="2" fill="#4334DF" />
<rect x="32" y="26" width="2" height="2" fill="#4334DF" />
<rect x="34" y="26" width="2" height="2" fill="#000000" />
<rect x="36" y="26" width="2" height="2" fill="#393192" />
<rect x="38" y="26" width="2" height="2" fill="#000000" />
<rect x="40" y="26" width="2" height="2" fill="#554F89" />
<rect x="42" y="26" width="2" height="2" fill="#000000" />
<rect x="8" y="28" width="2" height="2" fill="#000000" />
<rect x="10" y="28" width="2" height="2" fill="#000000" />
<rect x="20" y="28" width="2" height="2" fill="#000000" />
<rect x="22" y="28" width="2" height="2" fill="#000000" />
<rect x="24" y="28" width="2" height="2" fill="#393192" />
<rect x="26" y="28" width="2" height="2" fill="#393192" />
<rect x="28" y="28" width="2" height="2" fill="#000000" />
<rect x="30" y="28" width="2" height="2" fill="#3F31D1" />
<rect x="32" y="28" width="2" height="2" fill="#3F31D1" />
<rect x="34" y="28" width="2" height="2" fill="#000000" />
<rect x="36" y="28" width="2" height="2" fill="#393192" />
<rect x="38" y="28" width="2" height="2" fill="#393192" />
<rect x="40" y="28" width="2" height="2" fill="#000000" />
<rect x="42" y="28" width="2" height="2" fill="#000000" />
<rect x="52" y="28" width="2" height="2" fill="#000000" />
<rect x="54" y="28" width="2" height="2" fill="#000000" />
<rect x="8" y="30" width="2" height="2" fill="#000000" />
<rect x="10" y="30" width="2" height="2" fill="#4B41BB" />
<rect x="12" y="30" width="2" height="2" fill="#000000" />
<rect x="14" y="30" width="2" height="2" fill="#000000" />
<rect x="16" y="30" width="2" height="2" fill="#000000" />
<rect x="18" y="30" width="2" height="2" fill="#000000" />
<rect x="20" y="30" width="2" height="2" fill="#000000" />
<rect x="22" y="30" width="2" height="2" fill="#000000" />
<rect x="24" y="30" width="2" height="2" fill="#393192" />
<rect x="26" y="30" width="2" height="2" fill="#000000" />
<rect x="28" y="30" width="2" height="2" fill="#4334DF" />
<rect x="30" y="30" width="2" height="2" fill="#3F31D1" />
<rect x="32" y="30" width="2" height="2" fill="#3F31D1" />
<rect x="34" y="30" width="2" height="2" fill="#4334DF" />
<rect x="36" y="30" width="2" height="2" fill="#000000" />
<rect x="38" y="30" width="2" height="2" fill="#393192" />
<rect x="40" y="30" width="2" height="2" fill="#000000" />
<rect x="42" y="30" width="2" height="2" fill="#000000" />
<rect x="44" y="30" width="2" height="2" fill="#000000" />
<rect x="46" y="30" width="2" height="2" fill="#000000" />
<rect x="48" y="30" width="2" height="2" fill="#000000" />
<rect x="50" y="30" width="2" height="2" fill="#000000" />
<rect x="52" y="30" width="2" height="2" fill="#4B41BB" />
<rect x="54" y="30" width="2" height="2" fill="#000000" />
<rect x="8" y="32" width="2" height="2" fill="#000000" />
<rect x="10" y="32" width="2" height="2" fill="#393192" />
<rect x="12" y="32" width="2" height="2" fill="#000000" />
<rect x="14" y="32" width="2" height="2" fill="#746CBF" />
<rect x="16" y="32" width="2" height="2" fill="#000000" />
<rect x="18" y="32" width="2" height="2" fill="#000000" />
<rect x="20" y="32" width="2" height="2" fill="#4B40B2" />
<rect x="22" y="32" width="2" height="2" fill="#000000" />
<rect x="24" y="32" width="2" height="2" fill="#000000" />
<rect x="26" y="32" width="2" height="2" fill="#4334DF" />
<rect x="28" y="32" width="2" height="2" fill="#3F31D1" />
<rect x="30" y="32" width="2" height="2" fill="#392DB6" />
<rect x="32" y="32" width="2" height="2" fill="#392DB6" />
<rect x="34" y="32" width="2" height="2" fill="#3F31D1" />
<rect x="36" y="32" width="2" height="2" fill="#4334DF" />
<rect x="38" y="32" width="2" height="2" fill="#000000" />
<rect x="40" y="32" width="2" height="2" fill="#000000" />
<rect x="42" y="32" width="2" height="2" fill="#4B40B2" />
<rect x="44" y="32" width="2" height="2" fill="#000000" />
<rect x="46" y="32" width="2" height="2" fill="#000000" />
<rect x="48" y="32" width="2" height="2" fill="#746CBF" />
<rect x="50" y="32" width="2" height="2" fill="#000000" />
<rect x="52" y="32" width="2" height="2" fill="#393192" />
<rect x="54" y="32" width="2" height="2" fill="#000000" />
<rect x="8" y="34" width="2" height="2" fill="#000000" />
<rect x="10" y="34" width="2" height="2" fill="#000000" />
<rect x="12" y="34" width="2" height="2" fill="#6058A4" />
<rect x="14" y="34" width="2" height="2" fill="#000000" />
<rect x="16" y="34" width="2" height="2" fill="#000000" />
<rect x="18" y="34" width="2" height="2" fill="#4B40B2" />
<rect x="20" y="34" width="2" height="2" fill="#6D63C8" />
<rect x="22" y="34" width="2" height="2" fill="#000000" />
<rect x="24" y="34" width="2" height="2" fill="#4334DF" />
<rect x="26" y="34" width="2" height="2" fill="#3F31D1" />
<rect x="28" y="34" width="2" height="2" fill="#392DB6" />
<rect x="30" y="34" width="2" height="2" fill="#000000" />
<rect x="32" y="34" width="2" height="2" fill="#000000" />
<rect x="34" y="34" width="2" height="2" fill="#392DB6" />
<rect x="36" y="34" width="2" height="2" fill="#3F31D1" />
<rect x="38" y="34" width="2" height="2" fill="#4334DF" />
<rect x="40" y="34" width="2" height="2" fill="#000000" />
<rect x="42" y="34" width="2" height="2" fill="#6D63C8" />
<rect x="44" y="34" width="2" height="2" fill="#4B40B2" />
<rect x="46" y="34" width="2" height="2" fill="#000000" />
<rect x="48" y="34" width="2" height="2" fill="#000000" />
<rect x="50" y="34" width="2" height="2" fill="#6058A4" />
<rect x="52" y="34" width="2" height="2" fill="#000000" />
<rect x="54" y="34" width="2" height="2" fill="#000000" />
<rect x="8" y="36" width="2" height="2" fill="#000000" />
<rect x="10" y="36" width="2" height="2" fill="#554F89" />
<rect x="12" y="36" width="2" height="2" fill="#000000" />
<rect x="14" y="36" width="2" height="2" fill="#000000" />
<rect x="16" y="36" width="2" height="2" fill="#4B40B2" />
<rect x="18" y="36" width="2" height="2" fill="#6D63C8" />
<rect x="20" y="36" width="2" height="2" fill="#594CD1" />
<rect x="22" y="36" width="2" height="2" fill="#000000" />
<rect x="24" y="36" width="2" height="2" fill="#4334DF" />
<rect x="26" y="36" width="2" height="2" fill="#3F31D1" />
<rect x="28" y="36" width="2" height="2" fill="#392DB6" />
<rect x="30" y="36" width="2" height="2" fill="#000000" />
<rect x="32" y="36" width="2" height="2" fill="#000000" />
<rect x="34" y="36" width="2" height="2" fill="#392DB6" />
<rect x="36" y="36" width="2" height="2" fill="#3F31D1" />
<rect x="38" y="36" width="2" height="2" fill="#4334DF" />
<rect x="40" y="36" width="2" height="2" fill="#000000" />
<rect x="42" y="36" width="2" height="2" fill="#594CD1" />
<rect x="44" y="36" width="2" height="2" fill="#6D63C8" />
<rect x="46" y="36" width="2" height="2" fill="#4B40B2" />
<rect x="48" y="36" width="2" height="2" fill="#000000" />
<rect x="50" y="36" width="2" height="2" fill="#000000" />
<rect x="52" y="36" width="2" height="2" fill="#554F89" />
<rect x="54" y="36" width="2" height="2" fill="#000000" />
<rect x="8" y="38" width="2" height="2" fill="#000000" />
<rect x="10" y="38" width="2" height="2" fill="#000000" />
<rect x="12" y="38" width="2" height="2" fill="#000000" />
<rect x="14" y="38" width="2" height="2" fill="#4B40B2" />
<rect x="16" y="38" width="2" height="2" fill="#6D63C8" />
<rect x="18" y="38" width="2" height="2" fill="#594CD1" />
<rect x="20" y="38" width="2" height="2" fill="#594CD1" />
<rect x="22" y="38" width="2" height="2" fill="#000000" />
<rect x="24" y="38" width="2" height="2" fill="#3F31D1" />
<rect x="26" y="38" width="2" height="2" fill="#392DB6" />
<rect x="28" y="38" width="2" height="2" fill="#000000" />
<rect x="30" y="38" width="2" height="2" fill="#000000" />
<rect x="32" y="38" width="2" height="2" fill="#000000" />
<rect x="34" y="38" width="2" height="2" fill="#000000" />
<rect x="36" y="38" width="2" height="2" fill="#392DB6" />
<rect x="38" y="38" width="2" height="2" fill="#3F31D1" />
<rect x="40" y="38" width="2" height="2" fill="#000000" />
<rect x="42" y="38" width="2" height="2" fill="#594CD1" />
<rect x="44" y="38" width="2" height="2" fill="#594CD1" />
<rect x="46" y="38" width="2" height="2" fill="#6D63C8" />
<rect x="48" y="38" width="2" height="2" fill="#4B40B2" />
<rect x="50" y="38" width="2" height="2" fill="#000000" />
<rect x="52" y="38" width="2" height="2" fill="#000000" />
<rect x="54" y="38" width="2" height="2" fill="#000000" />
<rect x="8" y="40" width="2" height="2" fill="#000000" />
<rect x="10" y="40" width="2" height="2" fill="#000000" />
<rect x="12" y="40" width="2" height="2" fill="#4B40B2" />
<rect x="14" y="40" width="2" height="2" fill="#6D63C8" />
<rect x="16" y="40" width="2" height="2" fill="#594CD1" />
<rect x="18" y="40" width="2" height="2" fill="#594CD1" />
<rect x="20" y="40" width="2" height="2" fill="#4B40B2" />
<rect x="22" y="40" width="2" height="2" fill="#000000" />
<rect x="24" y="40" width="2" height="2" fill="#3F31D1" />
<rect x="26" y="40" width="2" height="2" fill="#392DB6" />
<rect x="28" y="40" width="2" height="2" fill="#000000" />
<rect x="30" y="40" width="2" height="2" fill="#000000" />
<rect x="32" y="40" width="2" height="2" fill="#000000" />
<rect x="34" y="40" width="2" height="2" fill="#000000" />
<rect x="36" y="40" width="2" height="2" fill="#392DB6" />
<rect x="38" y="40" width="2" height="2" fill="#3F31D1" />
<rect x="40" y="40" width="2" height="2" fill="#000000" />
<rect x="42" y="40" width="2" height="2" fill="#4B40B2" />
<rect x="44" y="40" width="2" height="2" fill="#594CD1" />
<rect x="46" y="40" width="2" height="2" fill="#594CD1" />
<rect x="48" y="40" width="2" height="2" fill="#6D63C8" />
<rect x="50" y="40" width="2" height="2" fill="#4B40B2" />
<rect x="52" y="40" width="2" height="2" fill="#000000" />
<rect x="54" y="40" width="2" height="2" fill="#000000" />
<rect x="6" y="42" width="2" height="2" fill="#000000" />
<rect x="8" y="42" width="2" height="2" fill="#000000" />
<rect x="10" y="42" width="2" height="2" fill="#4B40B2" />
<rect x="12" y="42" width="2" height="2" fill="#6D63C8" />
<rect x="14" y="42" width="2" height="2" fill="#594CD1" />
<rect x="16" y="42" width="2" height="2" fill="#594CD1" />
<rect x="18" y="42" width="2" height="2" fill="#4B40B2" />
<rect x="20" y="42" width="2" height="2" fill="#3E3592" />
<rect x="22" y="42" width="2" height="2" fill="#000000" />
<rect x="24" y="42" width="2" height="2" fill="#3F31D1" />
<rect x="26" y="42" width="2" height="2" fill="#392DB6" />
<rect x="28" y="42" width="2" height="2" fill="#000000" />
<rect x="30" y="42" width="2" height="2" fill="#4037A4" />
<rect x="32" y="42" width="2" height="2" fill="#4037A4" />
<rect x="34" y="42" width="2" height="2" fill="#000000" />
<rect x="36" y="42" width="2" height="2" fill="#392DB6" />
<rect x="38" y="42" width="2" height="2" fill="#3F31D1" />
<rect x="40" y="42" width="2" height="2" fill="#000000" />
<rect x="42" y="42" width="2" height="2" fill="#4B40B2" />
<rect x="44" y="42" width="2" height="2" fill="#4B40B2" />
<rect x="46" y="42" width="2" height="2" fill="#594CD1" />
<rect x="48" y="42" width="2" height="2" fill="#594CD1" />
<rect x="50" y="42" width="2" height="2" fill="#6D63C8" />
<rect x="52" y="42" width="2" height="2" fill="#4B40B2" />
<rect x="54" y="42" width="2" height="2" fill="#000000" />
<rect x="56" y="42" width="2" height="2" fill="#000000" />
<rect x="6" y="44" width="2" height="2" fill="#000000" />
<rect x="8" y="44" width="2" height="2" fill="#4B40B2" />
<rect x="10" y="44" width="2" height="2" fill="#6D63C8" />
<rect x="12" y="44" width="2" height="2" fill="#594CD1" />
<rect x="14" y="44" width="2" height="2" fill="#594CD1" />
<rect x="16" y="44" width="2" height="2" fill="#4B40B2" />
<rect x="18" y="44" width="2" height="2" fill="#3E3592" />
<rect x="20" y="44" width="2" height="2" fill="#3E3592" />
<rect x="22" y="44" width="2" height="2" fill="#000000" />
<rect x="24" y="44" width="2" height="2" fill="#4334DF" />
<rect x="26" y="44" width="2" height="2" fill="#392DB6" />
<rect x="28" y="44" width="2" height="2" fill="#000000" />
<rect x="30" y="44" width="2" height="2" fill="#4037A4" />
<rect x="32" y="44" width="2" height="2" fill="#4037A4" />
<rect x="34" y="44" width="2" height="2" fill="#000000" />
<rect x="36" y="44" width="2" height="2" fill="#392DB6" />
<rect x="38" y="44" width="2" height="2" fill="#4334DF" />
<rect x="40" y="44" width="2" height="2" fill="#000000" />
<rect x="42" y="44" width="2" height="2" fill="#3E3592" />
<rect x="44" y="44" width="2" height="2" fill="#3E3592" />
<rect x="46" y="44" width="2" height="2" fill="#4B40B2" />
<rect x="48" y="44" width="2" height="2" fill="#594CD1" />
<rect x="50" y="44" width="2" height="2" fill="#594CD1" />
<rect x="52" y="44" width="2" height="2" fill="#6D63C8" />
<rect x="54" y="44" width="2" height="2" fill="#4B40B2" />
<rect x="56" y="44" width="2" height="2" fill="#000000" />
<rect x="6" y="46" width="2" height="2" fill="#000000" />
<rect x="8" y="46" width="2" height="2" fill="#6D63C8" />
<rect x="10" y="46" width="2" height="2" fill="#594CD1" />
<rect x="12" y="46" width="2" height="2" fill="#594CD1" />
<rect x="14" y="46" width="2" height="2" fill="#4B40B2" />
<rect x="16" y="46" width="2" height="2" fill="#3E3592" />
<rect x="18" y="46" width="2" height="2" fill="#3E3592" />
<rect x="20" y="46" width="2" height="2" fill="#000000" />
<rect x="22" y="46" width="2" height="2" fill="#000000" />
<rect x="24" y="46" width="2" height="2" fill="#392DB6" />
<rect x="26" y="46" width="2" height="2" fill="#392DB6" />
<rect x="28" y="46" width="2" height="2" fill="#000000" />
<rect x="30" y="46" width="2" height="2" fill="#393192" />
<rect x="32" y="46" width="2" height="2" fill="#393192" />
<rect x="34" y="46" width="2" height="2" fill="#000000" />
<rect x="36" y="46" width="2" height="2" fill="#392DB6" />
<rect x="38" y="46" width="2" height="2" fill="#392DB6" />
<rect x="40" y="46" width="2" height="2" fill="#000000" />
<rect x="42" y="46" width="2" height="2" fill="#000000" />
<rect x="44" y="46" width="2" height="2" fill="#3E3592" />
<rect x="46" y="46" width="2" height="2" fill="#3E3592" />
<rect x="48" y="46" width="2" height="2" fill="#4B40B2" />
<rect x="50" y="46" width="2" height="2" fill="#594CD1" />
<rect x="52" y="46" width="2" height="2" fill="#594CD1" />
<rect x="54" y="46" width="2" height="2" fill="#6D63C8" />
<rect x="56" y="46" width="2" height="2" fill="#000000" />
<rect x="6" y="48" width="2" height="2" fill="#000000" />
<rect x="8" y="48" width="2" height="2" fill="#3E3592" />
<rect x="10" y="48" width="2" height="2" fill="#594CD1" />
<rect x="12" y="48" width="2" height="2" fill="#4B40B2" />
<rect x="14" y="48" width="2" height="2" fill="#3E3592" />
<rect x="16" y="48" width="2" height="2" fill="#3E3592" />
<rect x="18" y="48" width="2" height="2" fill="#000000" />
<rect x="20" y="48" width="2" height="2" fill="#000000" />
<rect x="22" y="48" width="2" height="2" fill="#000000" />
<rect x="24" y="48" width="2" height="2" fill="#000000" />
<rect x="26" y="48" width="2" height="2" fill="#000000" />
<rect x="28" y="48" width="2" height="2" fill="#000000" />
<rect x="30" y="48" width="2" height="2" fill="#3E3592" />
<rect x="32" y="48" width="2" height="2" fill="#3E3592" />
<rect x="34" y="48" width="2" height="2" fill="#000000" />
<rect x="36" y="48" width="2" height="2" fill="#000000" />
<rect x="38" y="48" width="2" height="2" fill="#000000" />
<rect x="40" y="48" width="2" height="2" fill="#000000" />
<rect x="42" y="48" width="2" height="2" fill="#000000" />
<rect x="44" y="48" width="2" height="2" fill="#000000" />
<rect x="46" y="48" width="2" height="2" fill="#3E3592" />
<rect x="48" y="48" width="2" height="2" fill="#3E3592" />
<rect x="50" y="48" width="2" height="2" fill="#4B40B2" />
<rect x="52" y="48" width="2" height="2" fill="#594CD1" />
<rect x="54" y="48" width="2" height="2" fill="#3E3592" />
<rect x="56" y="48" width="2" height="2" fill="#000000" />
<rect x="6" y="50" width="2" height="2" fill="#000000" />
<rect x="8" y="50" width="2" height="2" fill="#3E3592" />
<rect x="10" y="50" width="2" height="2" fill="#3E3592" />
<rect x="12" y="50" width="2" height="2" fill="#3E3592" />
<rect x="14" y="50" width="2" height="2" fill="#000000" />
<rect x="16" y="50" width="2" height="2" fill="#000000" />
<rect x="18" y="50" width="2" height="2" fill="#000000" />
<rect x="20" y="50" width="2" height="2" fill="#746CBF" />
<rect x="22" y="50" width="2" height="2" fill="#746CBF" />
<rect x="24" y="50" width="2" height="2" fill="#746CBF" />
<rect x="26" y="50" width="2" height="2" fill="#000000" />
<rect x="28" y="50" width="2" height="2" fill="#000000" />
<rect x="30" y="50" width="2" height="2" fill="#000000" />
<rect x="32" y="50" width="2" height="2" fill="#000000" />
<rect x="34" y="50" width="2" height="2" fill="#000000" />
<rect x="36" y="50" width="2" height="2" fill="#000000" />
<rect x="38" y="50" width="2" height="2" fill="#746CBF" />
<rect x="40" y="50" width="2" height="2" fill="#746CBF" />
<rect x="42" y="50" width="2" height="2" fill="#746CBF" />
<rect x="44" y="50" width="2" height="2" fill="#000000" />
<rect x="46" y="50" width="2" height="2" fill="#000000" />
<rect x="48" y="50" width="2" height="2" fill="#000000" />
<rect x="50" y="50" width="2" height="2" fill="#3E3592" />
<rect x="52" y="50" width="2" height="2" fill="#3E3592" />
<rect x="54" y="50" width="2" height="2" fill="#3E3592" />
<rect x="56" y="50" width="2" height="2" fill="#000000" />
<rect x="6" y="52" width="2" height="2" fill="#000000" />
<rect x="8" y="52" width="2" height="2" fill="#000000" />
<rect x="10" y="52" width="2" height="2" fill="#000000" />
<rect x="12" y="52" width="2" height="2" fill="#000000" />
<rect x="14" y="52" width="2" height="2" fill="#000000" />
<rect x="18" y="52" width="2" height="2" fill="#000000" />
<rect x="20" y="52" width="2" height="2" fill="#000000" />
<rect x="22" y="52" width="2" height="2" fill="#000000" />
<rect x="24" y="52" width="2" height="2" fill="#000000" />
<rect x="26" y="52" width="2" height="2" fill="#000000" />
<rect x="36" y="52" width="2" height="2" fill="#000000" />
<rect x="38" y="52" width="2" height="2" fill="#000000" />
<rect x="40" y="52" width="2" height="2" fill="#000000" />
<rect x="42" y="52" width="2" height="2" fill="#000000" />
<rect x="44" y="52" width="2" height="2" fill="#000000" />
<rect x="48" y="52" width="2" height="2" fill="#000000" />
<rect x="50" y="52" width="2" height="2" fill="#000000" />
<rect x="52" y="52" width="2" height="2" fill="#000000" />
<rect x="54" y="52" width="2" height="2" fill="#000000" />
<rect x="56" y="52" width="2" height="2" fill="#000000" />
<rect x="20" y="54" width="2" height="2" fill="#F16900" />
<rect x="22" y="54" width="2" height="2" fill="#FF6F00" />
<rect x="24" y="54" width="2" height="2" fill="#F16900" />
<rect x="38" y="54" width="2" height="2" fill="#F16900" />
<rect x="40" y="54" width="2" height="2" fill="#FF6F00" />
<rect x="42" y="54" width="2" height="2" fill="#F16900" />
<rect x="20" y="56" width="2" height="2" fill="#E46300" />
<rect x="22" y="56" width="2" height="2" fill="#F16900" />
<rect x="24" y="56" width="2" height="2" fill="#F16900" />
<rect x="38" y="56" width="2" height="2" fill="#F16900" />
<rect x="40" y="56" width="2" height="2" fill="#F16900" />
<rect x="42" y="56" width="2" height="2" fill="#E46300" />
<rect x="20" y="58" width="2" height="2" fill="#E46300" />
<rect x="22" y="58" width="2" height="2" fill="#F16900" />
<rect x="40" y="58" width="2" height="2" fill="#F16900" />
<rect x="42" y="58" width="2" height="2" fill="#E46300" />
<rect x="22" y="60" width="2" height="2" fill="#E46300" />
<rect x="40" y="60" width="2" height="2" fill="#E46300" />
</svg>