<?xml version="1.0" encoding="UTF-8" ?>
<svg version="1.1" width="32" height="32" xmlns="http://www.w3.org/2000/svg" shape-rendering="crispEdges">
<rect x="10" y="2" width="2" height="2" fill="#605508" />
<rect x="12" y="2" width="2" height="2" fill="#605508" />
<rect x="14" y="2" width="2" height="2" fill="#605508" />
<rect x="16" y="2" width="2" height="2" fill="#4D4406" />
<rect x="8" y="4" width="2" height="2" fill="#605508" />
<rect x="10" y="4" width="2" height="2" fill="#605508" />
<rect x="12" y="4" width="2" height="2" fill="#C8AF03" />
<rect x="14" y="4" width="2" height="2" fill="#C8AF03" />
<rect x="16" y="4" width="2" height="2" fill="#4D4406" />
<rect x="18" y="4" width="2" height="2" fill="#4D4406" />
<rect x="8" y="6" width="2" height="2" fill="#605508" />
<rect x="10" y="6" width="2" height="2" fill="#C8AF03" />
<rect x="12" y="6" width="2" height="2" fill="#D6C869" />
<rect x="14" y="6" width="2" height="2" fill="#C8AF03" />
<rect x="16" y="6" width="2" height="2" fill="#C8AF03" />
<rect x="18" y="6" width="2" height="2" fill="#4D4406" />
<rect x="8" y="8" width="2" height="2" fill="#605508" />
<rect x="10" y="8" width="2" height="2" fill="#C8AF03" />
<rect x="12" y="8" width="2" height="2" fill="#D6C869" />
<rect x="14" y="8" width="2" height="2" fill="#C8AF03" />
<rect x="16" y="8" width="2" height="2" fill="#C8AF03" />
<rect x="18" y="8" width="2" height="2" fill="#4D4406" />
<rect x="8" y="10" width="2" height="2" fill="#605508" />
<rect x="10" y="10" width="2" height="2" fill="#C8AF03" />
<rect x="12" y="10" width="2" height="2" fill="#D6C869" />
<rect x="14" y="10" width="2" height="2" fill="#C8AF03" />
<rect x="16" y="10" width="2" height="2" fill="#C8AF03" />
<rect x="18" y="10" width="2" height="2" fill="#4D4406" />
<rect x="8" y="12" width="2" height="2" fill="#605508" />
<rect x="10" y="12" width="2" height="2" fill="#D6C869" />
<rect x="12" y="12" width="2" height="2" fill="#C8AF03" />
<rect x="14" y="12" width="2" height="2" fill="#C8AF03" />
<rect x="16" y="12" width="2" height="2" fill="#C8AF03" />
<rect x="18" y="12" width="2" height="2" fill="#4D4406" />
<rect x="8" y="14" width="2" height="2" fill="#605508" />
<rect x="10" y="14" width="2" height="2" fill="#D6C869" />
<rect x="12" y="14" width="2" height="2" fill="#C8AF03" />
<rect x="14" y="14" width="2" height="2" fill="#C8AF03" />
<rect x="16" y="14" width="2" height="2" fill="#C8AF03" />
<rect x="18" y="14" width="2" height="2" fill="#4D4406" />
<rect x="8" y="16" width="2" height="2" fill="#605508" />
<rect x="10" y="16" width="2" height="2" fill="#D6C869" />
<rect x="12" y="16" width="2" height="2" fill="#C8AF03" />
<rect x="14" y="16" width="2" height="2" fill="#C8AF03" />
<rect x="16" y="16" width="2" height="2" fill="#9B8E36" />
<rect x="18" y="16" width="2" height="2" fill="#4D4406" />
<rect x="8" y="18" width="2" height="2" fill="#605508" />
<rect x="10" y="18" width="2" height="2" fill="#D6C869" />
<rect x="12" y="18" width="2" height="2" fill="#C8AF03" />
<rect x="14" y="18" width="2" height="2" fill="#C8AF03" />
<rect x="16" y="18" width="2" height="2" fill="#9B8E36" />
<rect x="18" y="18" width="2" height="2" fill="#4D4406" />
<rect x="8" y="20" width="2" height="2" fill="#4D4406" />
<rect x="10" y="20" width="2" height="2" fill="#C8AF03" />
<rect x="12" y="20" width="2" height="2" fill="#C8AF03" />
<rect x="14" y="20" width="2" height="2" fill="#C8AF03" />
<rect x="16" y="20" width="2" height="2" fill="#9B8E36" />
<rect x="18" y="20" width="2" height="2" fill="#494005" />
<rect x="8" y="22" width="2" height="2" fill="#4D4406" />
<rect x="10" y="22" width="2" height="2" fill="#C8AF03" />
<rect x="12" y="22" width="2" height="2" fill="#C8AF03" />
<rect x="14" y="22" width="2" height="2" fill="#C8AF03" />
<rect x="16" y="22" width="2" height="2" fill="#9B8E36" />
<rect x="18" y="22" width="2" height="2" fill="#494005" />
<rect x="8" y="24" width="2" height="2" fill="#4D4406" />
<rect x="10" y="24" width="2" height="2" fill="#C8AF03" />
<rect x="12" y="24" width="2" height="2" fill="#C8AF03" />
<rect x="14" y="24" width="2" height="2" fill="#C8AF03" />
<rect x="16" y="24" width="2" height="2" fill="#9B8E36" />
<rect x="18" y="24" width="2" height="2" fill="#494005" />
<rect x="8" y="26" width="2" height="2" fill="#4D4406" />
<rect x="10" y="26" width="2" height="2" fill="#4D4406" />
<rect x="12" y="26" width="2" height="2" fill="#9B8E36" />
<rect x="14" y="26" width="2" height="2" fill="#9B8E36" />
<rect x="16" y="26" width="2" height="2" fill="#494005" />
<rect x="18" y="26" width="2" height="2" fill="#494005" />
<rect x="10" y="28" width="2" height="2" fill="#4D4406" />
<rect x="12" y="28" width="2" height="2" fill="#494005" />
<rect x="14" y="28" width="2" height="2" fill="#494005" />
<rect x="16" y="28" width="2" height="2" fill="#494005" />
</svg>