<?xml version="1.0" encoding="UTF-8" ?>
<svg version="1.1" width="64" height="64" xmlns="http://www.w3.org/2000/svg" shape-rendering="crispEdges">
<rect x="54" y="16" width="2" height="2" fill="#E46300" />
<rect x="8" y="18" width="2" height="2" fill="#E46300" />
<rect x="54" y="18" width="2" height="2" fill="#E46300" />
<rect x="6" y="20" width="2" height="2" fill="#E46300" />
<rect x="8" y="20" width="2" height="2" fill="#F16900" />
<rect x="52" y="20" width="2" height="2" fill="#FF6F00" />
<rect x="54" y="20" width="2" height="2" fill="#F16900" />
<rect x="56" y="20" width="2" height="2" fill="#E46300" />
<rect x="8" y="22" width="2" height="2" fill="#FF6F00" />
<rect x="10" y="22" width="2" height="2" fill="#F16900" />
<rect x="50" y="22" width="2" height="2" fill="#F16900" />
<rect x="52" y="22" width="2" height="2" fill="#FF6F00" />
<rect x="54" y="22" width="2" height="2" fill="#FF6F00" />
<rect x="8" y="24" width="2" height="2" fill="#F16900" />
<rect x="10" y="24" width="2" height="2" fill="#E46300" />
<rect x="52" y="24" width="2" height="2" fill="#F16900" />
</svg>